<?xml version="1.0" standalone="no"?>
<!DOCTYPE svg PUBLIC "-//W3C//DTD SVG 20010904//EN"
 "http://www.w3.org/TR/2001/REC-SVG-20010904/DTD/svg10.dtd">
<svg version="1.0" xmlns="http://www.w3.org/2000/svg"
 width="1024.000000pt" height="1024.000000pt" viewBox="0 0 1024.000000 1024.000000"
 preserveAspectRatio="xMidYMid meet">
<metadata>
Created by potrace 1.11, written by Peter Selinger 2001-2013
</metadata>
<g transform="translate(0.000000,1024.000000) scale(0.100000,-0.100000)"
fill="#000000" stroke="none">
<path d="M5048 10129 c-62 -10 -197 -50 -204 -61 -3 -4 -12 -8 -19 -8 -29 0
-132 -75 -197 -143 -40 -41 -80 -96 -100 -136 -31 -62 -33 -72 -33 -171 0
-117 14 -174 74 -300 19 -41 39 -83 43 -93 8 -18 -14 -19 -165 -1 -168 19
-424 30 -435 19 -2 -2 -15 0 -28 5 -13 5 -24 6 -24 2 0 -4 -33 -8 -73 -9 -69
-2 -133 -8 -187 -18 -14 -2 -36 -6 -50 -9 -21 -4 -67 -15 -130 -31 -8 -2 -16
-4 -17 -5 -2 -2 -6 -3 -10 -5 -5 -1 -16 -5 -25 -9 -9 -4 -22 -9 -30 -10 -42
-9 -159 -67 -243 -121 -92 -59 -198 -194 -266 -340 -46 -97 -45 -106 12 -190
33 -50 130 -145 147 -145 6 0 12 -4 12 -9 0 -11 170 -95 215 -107 6 -1 37 -10
70 -19 59 -16 154 -38 211 -49 37 -6 82 -15 114 -21 14 -3 38 -8 55 -11 37 -7
43 -13 25 -24 -43 -27 -247 -178 -315 -234 -27 -23 -58 -48 -68 -56 -198 -160
-494 -456 -677 -675 -41 -50 -78 -92 -81 -95 -17 -15 -229 -303 -301 -410 -87
-129 -208 -323 -262 -420 -91 -165 -112 -206 -170 -325 -91 -188 -131 -277
-166 -366 -19 -48 -32 -80 -60 -144 -5 -11 -16 -42 -25 -69 -9 -27 -19 -54
-23 -60 -3 -6 -7 -17 -8 -24 -3 -15 -12 -28 -17 -21 -2 2 -52 103 -111 224
-60 121 -134 270 -164 330 -31 61 -65 129 -76 152 l-19 42 -46 -27 c-120 -69
-321 -243 -399 -346 -23 -30 -28 -78 -13 -119 10 -27 185 -206 270 -276 29
-25 59 -50 65 -55 6 -6 38 -33 71 -61 33 -27 85 -73 115 -102 48 -47 51 -52
25 -43 -44 16 -89 37 -190 85 -129 61 -139 66 -250 125 -246 130 -522 260
-555 262 -3 0 -20 6 -39 14 -38 16 -33 19 -67 -41 -29 -50 -125 -245 -145
-295 -48 -120 -75 -224 -85 -330 l-6 -55 33 -12 c29 -10 89 -24 214 -49 11 -2
31 -6 45 -9 44 -9 74 -15 105 -20 17 -2 39 -6 50 -8 37 -8 162 -28 196 -32 19
-2 35 -4 37 -5 4 -4 15 -6 82 -14 36 -4 74 -10 85 -12 11 -1 43 -6 70 -9 28
-3 66 -7 85 -10 70 -10 136 -17 168 -18 17 -1 32 -4 32 -7 0 -3 15 -5 34 -4
18 1 39 -2 45 -6 11 -6 -41 -24 -133 -45 -235 -55 -410 -108 -493 -149 -50
-26 -71 -50 -52 -61 5 -4 7 -11 4 -16 -4 -5 -1 -9 6 -9 7 0 10 -2 7 -6 -6 -5
24 -95 55 -168 9 -21 17 -41 17 -44 0 -7 88 -181 103 -202 11 -16 23 -9 132
76 66 51 125 97 130 102 6 4 51 38 100 75 50 37 95 71 102 77 7 5 16 10 22 10
5 0 11 3 13 8 3 7 84 62 92 62 3 0 3 -17 1 -37 -27 -247 -22 -688 11 -933 3
-19 7 -53 9 -75 3 -22 7 -49 9 -60 9 -42 20 -120 18 -127 -1 -5 2 -8 7 -8 4 0
7 -10 7 -23 -1 -12 2 -28 7 -34 5 -7 7 -13 4 -13 -3 0 3 -32 13 -70 10 -39 19
-74 20 -78 5 -26 14 -59 19 -67 3 -5 6 -14 7 -20 12 -75 147 -417 206 -520 6
-11 25 -45 41 -75 16 -30 35 -62 41 -70 7 -8 18 -27 26 -42 7 -16 17 -28 22
-28 4 0 8 -4 8 -10 0 -9 56 -92 85 -127 5 -7 19 -24 30 -39 11 -14 25 -31 30
-37 6 -7 28 -35 50 -62 52 -65 261 -275 345 -345 36 -30 70 -59 76 -65 7 -5
24 -19 40 -30 15 -11 32 -25 38 -30 6 -6 34 -26 61 -45 28 -19 52 -37 55 -41
14 -15 326 -213 363 -230 12 -5 45 -23 72 -39 49 -29 311 -160 319 -160 2 0
37 -15 78 -34 189 -88 644 -247 804 -281 11 -2 55 -13 99 -25 44 -11 91 -23
105 -26 14 -3 33 -7 42 -10 21 -6 64 -15 93 -19 11 -2 20 -4 20 -5 0 -1 9 -3
20 -5 11 -2 34 -6 50 -9 17 -4 41 -9 55 -11 14 -3 39 -8 55 -10 17 -3 41 -8
55 -10 58 -12 75 -15 129 -21 31 -3 58 -8 61 -9 3 -2 34 -6 70 -10 36 -4 73
-9 83 -11 10 -2 53 -6 95 -9 42 -4 89 -8 103 -10 217 -27 886 -27 1119 0 75 8
157 17 195 20 39 4 93 11 145 21 14 2 45 7 70 10 25 3 53 7 63 10 10 3 30 7
45 9 15 3 38 7 52 10 14 3 41 8 60 11 19 4 44 9 55 11 11 3 38 9 60 13 22 5
51 12 65 15 14 3 36 8 50 11 14 2 32 7 40 11 8 3 22 7 30 9 8 2 53 15 100 29
47 14 95 28 107 30 12 3 33 9 45 14 13 5 26 9 30 10 4 1 25 8 45 16 21 7 74
27 118 43 230 85 532 232 698 338 37 24 72 44 77 44 5 0 14 8 19 18 6 9 11 13
11 9 0 -9 93 53 98 66 2 4 10 7 17 7 7 0 15 3 17 8 2 4 21 20 43 36 189 138
433 369 555 525 19 25 42 53 50 62 24 28 33 40 80 109 25 36 47 67 50 70 6 6
14 19 94 155 36 61 90 164 121 230 31 66 60 128 65 137 6 10 10 23 10 30 0 7
6 25 14 39 11 21 45 112 51 139 1 3 4 12 8 20 8 19 68 210 72 230 2 8 17 67
34 130 17 63 32 126 34 140 3 14 10 43 15 65 6 22 13 57 16 79 4 21 8 41 10
45 5 7 13 52 31 176 22 140 14 1060 -9 1210 -10 61 -19 119 -21 131 -1 11 -8
45 -14 75 -6 30 -13 68 -16 86 -3 18 -9 43 -15 57 -5 15 -8 26 -6 26 2 0 -2
20 -10 45 -7 25 -10 45 -7 45 3 0 0 7 -7 15 -7 8 -10 15 -7 15 3 0 -1 21 -9
48 -8 26 -16 52 -18 57 -1 6 -9 30 -16 55 -8 25 -14 47 -15 50 -20 91 -188
501 -271 662 -10 21 -37 72 -59 115 -22 43 -42 80 -46 83 -4 3 -15 22 -25 42
-36 70 -260 425 -284 448 -3 3 -18 23 -35 45 -16 22 -33 45 -37 50 -4 6 -34
44 -65 85 -65 85 -73 95 -163 199 -133 154 -268 290 -480 481 -16 14 -47 41
-70 60 -23 19 -47 40 -54 45 -186 163 -638 468 -946 639 -76 42 -88 53 -112
99 -14 29 -60 120 -101 202 -82 165 -123 242 -142 265 -6 8 -14 22 -18 31 -10
29 -154 213 -265 339 -158 180 -321 342 -442 439 -30 25 -59 49 -65 55 -16 17
-124 96 -195 143 -36 24 -69 46 -75 51 -54 42 -388 210 -430 217 -5 0 -23 7
-40 14 -135 58 -419 87 -587 60z"/>
</g>
</svg>
